<svg xmlns="http://www.w3.org/2000/svg" width="1200" height="630" viewBox="0 0 1200 630" role="img" aria-label="Pick My Place - Rank travel destinations from your preferences">
  <defs>
    <linearGradient id="bg" x1="0%" y1="0%" x2="100%" y2="100%">
      <stop offset="0%" stop-color="#f3f8ff"/>
      <stop offset="100%" stop-color="#ffffff"/>
    </linearGradient>
  </defs>
  <rect width="1200" height="630" rx="24" fill="url(#bg)"/>
  <ellipse cx="980" cy="520" rx="280" ry="200" fill="#d8e8f8" opacity="0.55"/>
  <ellipse cx="860" cy="560" rx="220" ry="160" fill="#e8f2fb" opacity="0.7"/>

  <rect x="120" y="210" width="120" height="120" rx="28" fill="#0b7a75"/>
  <path fill="#ffffff" d="M180 248c-14 0-25 11-25 24s11 24 25 24 25-11 25-24-11-24-25-24zm0 38c-7.7 0-14-6.3-14-14s6.3-14 14-14 14 6.3 14 14-6.3 14-14 14z"/>
  <path fill="#ffffff" d="M166 286l14 42 14-42z"/>

  <rect x="280" y="175" width="318" height="52" rx="26" fill="#0b7a75"/>
  <text x="304" y="210" fill="#ffffff" font-family="Segoe UI, Arial, sans-serif" font-size="22" font-weight="600">Smart Travel Matcher</text>

  <text x="280" y="310" fill="#172033" font-family="Segoe UI, Arial, sans-serif" font-size="76" font-weight="700">Pick My Place</text>
  <text x="285" y="372" fill="#5f6d84" font-family="Segoe UI, Arial, sans-serif" font-size="34" font-weight="400">Rank travel destinations from your preferences</text>
</svg>
